<svg width="569" height="512" xmlns="http://www.w3.org/2000/svg"><g fill="#087EA4"><path d="M285.5 201c-30.1 0-54.5 24.4-54.5 54.5s24.4 54.5 54.5 54.5 54.5-24.4 54.5-54.5-24.4-54.5-54.5-54.5"/><path d="M568.96 255.994c0-42.786-39.622-80.313-102.708-105.009.843-5.561 1.605-11.063 2.147-16.464 6.223-61.48-8.59-105.852-41.69-124.967-37.032-21.383-89.34-5.863-142.23 36.462C231.59 3.691 179.284-11.829 142.25 9.554c-33.099 19.115-47.912 63.488-41.69 124.967.542 5.401 1.285 10.923 2.148 16.504a289.18 289.18 0 0 0-15.375 6.365C31.011 182.71 0 217.765 0 255.994c0 42.787 39.622 80.313 102.708 105.01-.863 5.561-1.606 11.063-2.147 16.464-6.223 61.48 8.59 105.852 41.689 124.967a73.506 73.506 0 0 0 37.354 9.557c31.352 0 67.964-16.504 104.876-46.02 36.892 29.516 73.524 46.02 104.916 46.02a73.566 73.566 0 0 0 37.354-9.557c33.099-19.115 47.912-63.488 41.69-124.967-.542-5.401-1.305-10.903-2.148-16.464C529.378 336.347 569 298.76 569 255.994M389.155 27.103a47.438 47.438 0 0 1 24.087 5.903c22.982 13.271 33.299 49.272 28.281 98.764a266.864 266.864 0 0 1-1.224 10.22 478.747 478.747 0 0 0-80.288-16.845 480.301 480.301 0 0 0-54.797-61.179c31.373-24.254 60.818-36.863 83.921-36.863m-10.779 283.103a591.144 591.144 0 0 1-33.118 51.2 590.4 590.4 0 0 1-60.778 3.091 590.4 590.4 0 0 1-60.758-3.092 589.478 589.478 0 0 1-33.018-51.2 582.539 582.539 0 0 1-27.64-54.21 582.539 582.539 0 0 1 27.64-54.212 597.068 597.068 0 0 1 32.918-51.019 578.748 578.748 0 0 1 60.878-3.172 591.49 591.49 0 0 1 60.758 3.092 598.975 598.975 0 0 1 33.038 51.1 587.479 587.479 0 0 1 27.64 54.21 587.479 587.479 0 0 1-27.64 54.212m41.449-20.079a425.458 425.458 0 0 1 15.656 53.208 420.78 420.78 0 0 1-53.713 12.95 602.68 602.68 0 0 0 20.072-32.507c6.403-11.123 12.405-22.347 18.065-33.57m-173.442 100.17c12.485.763 25.23 1.205 38.137 1.205 12.906 0 25.732-.442 38.237-1.205a424.156 424.156 0 0 1-38.237 40.156 421.587 421.587 0 0 1-38.137-40.156Zm-59.051-34.133a420.78 420.78 0 0 1-53.733-12.91 425.458 425.458 0 0 1 15.596-53.127c5.58 11.223 11.561 22.447 18.065 33.57 6.503 11.124 13.227 22.087 20.072 32.507m-38.137-134.524a425.76 425.76 0 0 1-15.556-52.926 426.278 426.278 0 0 1 53.592-12.99c-6.864 10.38-13.589 21.142-20.072 32.365-6.483 11.224-12.404 22.307-18.065 33.551m173.543-100.17c-12.485-.763-25.23-1.205-38.237-1.205-12.9 0-25.612.402-38.137 1.205a421.587 421.587 0 0 1 38.137-40.157 421.587 421.587 0 0 1 38.237 40.157Zm79.083 66.62a590.708 590.708 0 0 0-20.172-32.527 420.64 420.64 0 0 1 53.853 12.97 428.893 428.893 0 0 1-15.596 53.127c-5.58-11.224-11.581-22.447-18.065-33.55m-274.203-56.44c-5.078-49.473 5.3-85.494 28.262-98.765a47.579 47.579 0 0 1 24.086-5.903c23.103 0 52.548 12.609 83.92 36.863a480.964 480.964 0 0 0-54.836 61.219 486.131 486.131 0 0 0-80.288 16.785c-.461-3.433-.883-6.826-1.204-10.2m-29.004 50.316a746.862 746.862 0 0 1 9.454-4.015 484.434 484.434 0 0 0 25.592 77.903 483.37 483.37 0 0 0-25.612 78.065c-51.144-20.982-80.79-50.055-80.79-78.065 0-26.543 26.094-53.468 71.356-73.888Zm57.326 296.857c-22.963-13.272-33.34-49.292-28.262-98.765.321-3.373.743-6.766 1.204-10.22a479.188 479.188 0 0 0 80.288 16.846 482.168 482.168 0 0 0 54.797 61.219c-43.737 33.791-83.7 44.935-107.967 30.92m285.664-98.765c5.018 49.493-5.3 85.493-28.282 98.765-24.246 14.055-64.23 2.871-107.947-30.92a482.068 482.068 0 0 0 54.777-61.219 478.747 478.747 0 0 0 80.288-16.846c.481 3.454.883 6.847 1.224 10.22m19.63-46.18a485.337 485.337 0 0 0-25.631-78.024 485.338 485.338 0 0 0 25.611-78.064c51.043 20.982 80.77 50.055 80.77 78.064 0 28.01-29.646 57.083-80.79 78.065"/></g></svg>